# Blender v2.76 (sub 0) OBJ File: 'square.blend'
# www.blender.org
o Cube
v 0.536730 -0.196647 -0.560607
v 0.536730 -0.196647 0.512853
v -0.536730 -0.196647 0.512853
v -0.536730 -0.196647 -0.560607
v 0.470790 -0.047027 -0.494666
v 0.470790 -0.047027 0.446914
v -0.470790 -0.047027 0.446913
v -0.470790 -0.047027 -0.494667
vn 0.000000 -1.000000 0.000000
vn 0.000000 1.000000 -0.000000
vn 0.915100 0.403300 0.000000
vn -0.000000 0.403300 0.915100
vn -0.915100 0.403300 -0.000000
vn 0.000000 0.403300 -0.915100
s off
f 2//1 3//1 4//1
f 5//2 8//2 7//2
f 5//3 6//3 2//3
f 6//4 7//4 3//4
f 7//5 8//5 4//5
f 1//6 4//6 8//6
f 1//1 2//1 4//1
f 6//2 5//2 7//2
f 1//3 5//3 2//3
f 2//4 6//4 3//4
f 3//5 7//5 4//5
f 5//6 1//6 8//6
