# Blender v2.76 (sub 0) OBJ File: 'x.blend'
# www.blender.org
o Cube.001
v -0.038735 3.758977 -1.275416
v -0.038735 5.234582 1.481634
v -1.347839 5.234582 1.481634
v -1.347838 3.758977 -1.275417
v -0.038735 4.125865 -1.471778
v -0.038735 5.601470 1.285273
v -1.347839 5.601469 1.285271
v -1.347838 4.125865 -1.471779
vn -0.000000 -0.881700 0.471900
vn 0.000000 0.881700 -0.471900
vn 1.000000 0.000000 -0.000000
vn -0.000000 0.471900 0.881700
vn -1.000000 -0.000000 0.000000
vn 0.000000 -0.471900 -0.881700
s off
f 1//1 2//1 3//1
f 5//2 8//2 7//2
f 5//3 6//3 2//3
f 6//4 7//4 3//4
f 7//5 8//5 4//5
f 1//6 4//6 8//6
f 4//1 1//1 3//1
f 6//2 5//2 7//2
f 1//3 5//3 2//3
f 2//4 6//4 3//4
f 3//5 7//5 4//5
f 5//6 1//6 8//6
o Cube
v -0.037384 5.217399 -1.478264
v -0.037384 3.749578 1.282938
v -1.361326 3.749578 1.282938
v -1.361326 5.217399 -1.478265
v -0.037384 5.584838 -1.282938
v -0.037385 4.117018 1.478265
v -1.361326 4.117018 1.478264
v -1.361326 5.584838 -1.282938
vn 0.000000 -0.883000 -0.469400
vn 0.000000 0.883000 0.469400
vn 1.000000 0.000000 0.000000
vn -0.000000 -0.469400 0.883000
vn -1.000000 -0.000000 -0.000000
vn 0.000000 0.469400 -0.883000
s off
f 10//7 11//7 12//7
f 13//8 16//8 15//8
f 13//9 14//9 10//9
f 14//10 15//10 11//10
f 15//11 16//11 12//11
f 9//12 12//12 16//12
f 9//7 10//7 12//7
f 14//8 13//8 15//8
f 9//9 13//9 10//9
f 10//10 14//10 11//10
f 11//11 15//11 12//11
f 13//12 9//12 16//12
